<svg width="800" height="400" viewBox="0 0 800 400" xmlns="http://www.w3.org/2000/svg"><mask id="satori_om-id"><rect x="0" y="0" width="800" height="400" fill="#fff"/></mask><rect x="0" y="0" width="800" height="400" fill="white"/><mask id="satori_om-id-0"><rect x="42" y="42" width="159" height="24" fill="#fff"/></mask><mask id="satori_om-id-0-0"><rect x="42" y="42" width="24" height="24" fill="#fff"/></mask><path x="42" y="42" width="24" height="24" fill="#121417" d="M54,42 h0 a12,12 0 0 1 12,12 v0 a12,12 0 0 1 -12,12 h0 a12,12 0 0 1 -12,-12 v0 a12,12 0 0 1 12,-12"/><mask id="satori_om-id-0-1"><rect x="74" y="42" width="127" height="24" fill="#fff"/></mask><path fill="black" d="M78.2 60.7L75.2 60.7L75.2 49.8L78.1 49.8L78.1 51.7L78.2 51.7Q78.6 50.8 79.4 50.2Q80.2 49.7 81.3 49.7L81.3 49.7Q82.4 49.7 83.2 50.2Q84.0 50.8 84.2 51.7L84.2 51.7L84.3 51.7Q84.7 50.8 85.5 50.2Q86.4 49.7 87.6 49.7L87.6 49.7Q89.1 49.7 90.1 50.6Q91.1 51.6 91.1 53.4L91.1 53.4L91.1 60.7L88.0 60.7L88.0 54.0Q88.0 53.1 87.6 52.6Q87.1 52.2 86.4 52.2L86.4 52.2Q85.5 52.2 85.1 52.7Q84.6 53.2 84.6 54.1L84.6 54.1L84.6 60.7L81.7 60.7L81.7 53.9Q81.7 53.1 81.2 52.6Q80.8 52.2 80.0 52.2L80.0 52.2Q79.5 52.2 79.1 52.4Q78.7 52.7 78.5 53.1Q78.2 53.6 78.2 54.2L78.2 54.2L78.2 60.7ZM96.2 60.7L93.1 60.7L93.1 49.8L96.2 49.8L96.2 60.7ZM94.6 48.4L94.6 48.4Q94.0 48.4 93.5 48.0Q93.0 47.5 93.0 46.9L93.0 46.9Q93.0 46.2 93.5 45.8Q94.0 45.3 94.6 45.3L94.6 45.3Q95.3 45.3 95.8 45.8Q96.3 46.2 96.3 46.9L96.3 46.9Q96.3 47.5 95.8 48.0Q95.3 48.4 94.6 48.4ZM103.0 55.3L101.0 57.6L101.0 54.0L101.4 54.0L104.9 49.8L108.4 49.8L103.7 55.3L103.0 55.3ZM101.3 60.7L98.2 60.7L98.2 46.2L101.3 46.2L101.3 60.7ZM108.6 60.7L105.1 60.7L101.9 56.0L103.9 53.8L108.6 60.7ZM114.1 60.9L114.1 60.9Q112.4 60.9 111.2 60.2Q110.0 59.6 109.3 58.3Q108.7 57.0 108.7 55.3L108.7 55.3Q108.7 53.6 109.3 52.4Q110.0 51.1 111.2 50.4Q112.4 49.7 114.0 49.7L114.0 49.7Q115.0 49.7 116.0 50.0Q116.9 50.4 117.6 51.0Q118.3 51.7 118.7 52.8Q119.1 53.8 119.1 55.2L119.1 55.2L119.1 56.0L109.9 56.0L109.9 54.2L116.2 54.2Q116.2 53.5 116.0 53.0Q115.7 52.5 115.2 52.2Q114.7 51.9 114.0 51.9L114.0 51.9Q113.3 51.9 112.8 52.2Q112.3 52.6 112.0 53.1Q111.7 53.6 111.7 54.3L111.7 54.3L111.7 56.0Q111.7 56.9 112.0 57.4Q112.3 58.0 112.8 58.4Q113.4 58.7 114.1 58.7L114.1 58.7Q114.6 58.7 115.0 58.5Q115.5 58.4 115.8 58.1Q116.1 57.8 116.2 57.4L116.2 57.4L119.0 57.6Q118.8 58.6 118.2 59.4Q117.5 60.1 116.5 60.5Q115.4 60.9 114.1 60.9ZM120.7 46.2L123.8 46.2L123.8 60.7L120.7 60.7L120.7 46.2ZM128.9 60.7L125.9 60.7L125.9 49.8L128.9 49.8L128.9 60.7ZM127.4 48.4L127.4 48.4Q126.7 48.4 126.2 48.0Q125.7 47.5 125.7 46.9L125.7 46.9Q125.7 46.2 126.2 45.8Q126.7 45.3 127.4 45.3L127.4 45.3Q128.1 45.3 128.5 45.8Q129.0 46.2 129.0 46.9L129.0 46.9Q129.0 47.5 128.5 48.0Q128.1 48.4 127.4 48.4ZM138.0 56.1L138.0 56.1L138.0 49.8L141.0 49.8L141.0 60.7L138.1 60.7L138.1 58.7L138.0 58.7Q137.6 59.7 136.8 60.3Q135.9 60.9 134.7 60.9L134.7 60.9Q133.6 60.9 132.7 60.4Q131.9 59.9 131.5 59.0Q131.0 58.0 131.0 56.8L131.0 56.8L131.0 49.8L134.0 49.8L134.0 56.2Q134.0 57.2 134.5 57.7Q135.0 58.3 135.9 58.3L135.9 58.3Q136.4 58.3 136.9 58.1Q137.4 57.8 137.7 57.3Q138.0 56.8 138.0 56.1ZM150.1 56.1L150.1 56.1L150.1 49.8L153.1 49.8L153.1 60.7L150.2 60.7L150.2 58.7L150.1 58.7Q149.7 59.7 148.9 60.3Q148.0 60.9 146.8 60.9L146.8 60.9Q145.7 60.9 144.9 60.4Q144.0 59.9 143.6 59.0Q143.1 58.0 143.1 56.8L143.1 56.8L143.1 49.8L146.1 49.8L146.1 56.2Q146.1 57.2 146.6 57.7Q147.2 58.3 148.0 58.3L148.0 58.3Q148.6 58.3 149.0 58.1Q149.5 57.8 149.8 57.3Q150.1 56.8 150.1 56.1ZM157.0 60.9L157.0 60.9Q156.3 60.9 155.8 60.4Q155.3 59.9 155.3 59.2L155.3 59.2Q155.3 58.5 155.8 58.0Q156.3 57.5 157.0 57.5L157.0 57.5Q157.7 57.5 158.2 58.0Q158.7 58.5 158.7 59.2L158.7 59.2Q158.7 59.7 158.4 60.1Q158.2 60.4 157.8 60.7Q157.4 60.9 157.0 60.9ZM165.8 60.9L165.8 60.9Q164.1 60.9 162.9 60.2Q161.7 59.5 161.0 58.2Q160.4 57.0 160.4 55.3L160.4 55.3Q160.4 53.6 161.1 52.4Q161.7 51.1 162.9 50.4Q164.1 49.7 165.8 49.7L165.8 49.7Q167.2 49.7 168.3 50.2Q169.3 50.7 170.0 51.6Q170.6 52.6 170.6 53.8L170.6 53.8L167.8 53.8Q167.7 53.0 167.2 52.5Q166.6 52.0 165.8 52.0L165.8 52.0Q165.1 52.0 164.6 52.4Q164.1 52.8 163.8 53.5Q163.5 54.2 163.5 55.3L163.5 55.3Q163.5 56.3 163.8 57.0Q164.1 57.8 164.6 58.2Q165.1 58.5 165.8 58.5L165.8 58.5Q166.3 58.5 166.7 58.3Q167.2 58.1 167.4 57.7Q167.7 57.3 167.8 56.7L167.8 56.7L170.6 56.7Q170.6 58.0 170.0 58.9Q169.4 59.9 168.3 60.4Q167.2 60.9 165.8 60.9ZM177.2 60.9L177.2 60.9Q175.5 60.9 174.3 60.2Q173.1 59.5 172.5 58.3Q171.8 57.0 171.8 55.3L171.8 55.3Q171.8 53.6 172.5 52.4Q173.1 51.1 174.3 50.4Q175.5 49.7 177.2 49.7L177.2 49.7Q178.9 49.7 180.1 50.4Q181.3 51.1 181.9 52.4Q182.6 53.6 182.6 55.3L182.6 55.3Q182.6 57.0 181.9 58.3Q181.3 59.5 180.1 60.2Q178.9 60.9 177.2 60.9ZM177.2 58.6L177.2 58.6Q178.0 58.6 178.5 58.2Q179.0 57.7 179.2 57.0Q179.5 56.2 179.5 55.3L179.5 55.3Q179.5 54.3 179.2 53.6Q179.0 52.8 178.5 52.4Q178.0 52.0 177.2 52.0L177.2 52.0Q176.5 52.0 175.9 52.4Q175.4 52.8 175.2 53.6Q174.9 54.3 174.9 55.3L174.9 55.3Q174.9 56.2 175.2 57.0Q175.4 57.7 175.9 58.2Q176.5 58.6 177.2 58.6ZM187.2 60.7L184.2 60.7L184.2 49.8L187.1 49.8L187.1 51.7L187.2 51.7Q187.6 50.8 188.4 50.2Q189.2 49.7 190.3 49.7L190.3 49.7Q191.4 49.7 192.2 50.2Q193.0 50.8 193.2 51.7L193.2 51.7L193.3 51.7Q193.7 50.8 194.6 50.2Q195.4 49.7 196.6 49.7L196.6 49.7Q198.2 49.7 199.1 50.6Q200.1 51.6 200.1 53.4L200.1 53.4L200.1 60.7L197.1 60.7L197.1 54.0Q197.1 53.1 196.6 52.6Q196.1 52.2 195.4 52.2L195.4 52.2Q194.5 52.2 194.1 52.7Q193.6 53.2 193.6 54.1L193.6 54.1L193.6 60.7L190.7 60.7L190.7 53.9Q190.7 53.1 190.2 52.6Q189.8 52.2 189.0 52.2L189.0 52.2Q188.5 52.2 188.1 52.4Q187.7 52.7 187.5 53.1Q187.2 53.6 187.2 54.2L187.2 54.2L187.2 60.7Z "/><mask id="satori_om-id-1"><rect x="248" y="152" width="304" height="96" fill="#fff"/></mask><path fill="#121417" d="M319.5 221.9L319.5 221.9Q314.9 221.9 311.4 220.6Q307.9 219.4 305.4 217.0Q303.0 214.7 301.7 211.3Q300.4 207.8 300.4 203.5L300.4 203.5Q300.4 199.2 301.7 195.7Q303.0 192.2 305.5 189.7Q307.9 187.2 311.5 185.9Q315.1 184.5 319.6 184.5L319.6 184.5Q323.9 184.5 327.2 185.7Q330.5 187.0 332.9 189.3Q335.2 191.5 336.4 194.7Q337.6 197.8 337.6 201.6L337.6 201.6Q337.6 204.2 337.1 206.4Q336.7 208.6 335.7 210.2Q334.7 211.8 333.1 212.8Q331.4 213.7 329.1 213.9L329.1 213.9Q327.5 214.0 326.5 213.6Q325.4 213.2 324.9 212.5Q324.4 211.8 324.2 210.8L324.2 210.8L324.1 210.8Q323.7 211.7 322.7 212.3Q321.7 213.0 320.3 213.4Q318.9 213.8 317.3 213.7L317.3 213.7Q315.6 213.6 314.1 212.9Q312.6 212.2 311.4 210.9Q310.3 209.6 309.6 207.7Q309.0 205.8 308.9 203.3L308.9 203.3Q309.0 200.9 309.6 199.0Q310.3 197.2 311.5 195.9Q312.6 194.7 314.0 194.0Q315.4 193.3 316.8 193.1L316.8 193.1Q318.5 192.8 319.9 193.1Q321.3 193.3 322.3 193.9Q323.3 194.4 323.5 195.0L323.5 195.0L323.7 195.0L323.7 193.4L328.2 193.4L328.2 207.3Q328.2 208.3 328.6 208.8Q329.1 209.4 329.8 209.4L329.8 209.4Q330.8 209.4 331.4 208.5Q332.1 207.6 332.4 205.8Q332.7 204.0 332.7 201.3L332.7 201.3Q332.7 198.6 332.0 196.6Q331.3 194.6 330.1 193.1Q328.8 191.7 327.2 190.8Q325.5 189.9 323.6 189.5Q321.6 189.1 319.6 189.1L319.6 189.1Q316.0 189.1 313.4 190.2Q310.8 191.2 309.0 193.2Q307.2 195.1 306.4 197.7Q305.5 200.3 305.5 203.3L305.5 203.3Q305.5 206.7 306.4 209.3Q307.3 211.9 309.2 213.6Q311.0 215.4 313.7 216.3Q316.3 217.2 319.8 217.2L319.8 217.2Q321.4 217.2 323.0 217.0Q324.5 216.8 325.8 216.4Q327.1 216.1 327.8 215.8L327.8 215.8L329.3 219.9Q328.4 220.4 326.8 220.9Q325.3 221.3 323.4 221.6Q321.5 221.9 319.5 221.9ZM318.8 209.0L318.8 209.0Q320.5 209.0 321.6 208.3Q322.6 207.7 323.0 206.4Q323.5 205.1 323.5 203.1L323.5 203.1Q323.5 201.4 323.0 200.2Q322.6 199.0 321.6 198.4Q320.6 197.8 318.8 197.8L318.8 197.8Q317.2 197.8 316.1 198.5Q315.0 199.1 314.4 200.3Q313.9 201.5 313.8 203.2L313.8 203.2Q313.9 204.7 314.3 206.0Q314.8 207.4 315.9 208.2Q316.9 209.0 318.8 209.0ZM347.4 213.5L341.3 213.5L341.3 191.7L347.1 191.7L347.1 195.5L347.3 195.5Q348.0 193.6 349.6 192.5Q351.2 191.4 353.4 191.4L353.4 191.4Q355.7 191.4 357.2 192.5Q358.8 193.6 359.3 195.5L359.3 195.5L359.6 195.5Q360.2 193.6 362.0 192.5Q363.7 191.4 366.1 191.4L366.1 191.4Q369.2 191.4 371.1 193.3Q373.0 195.2 373.0 198.8L373.0 198.8L373.0 213.5L367.0 213.5L367.0 200.0Q367.0 198.2 366.0 197.3Q365.1 196.4 363.6 196.4L363.6 196.4Q362.0 196.4 361.0 197.4Q360.1 198.4 360.1 200.2L360.1 200.2L360.1 213.5L354.2 213.5L354.2 199.9Q354.2 198.3 353.3 197.3Q352.4 196.4 350.9 196.4L350.9 196.4Q349.9 196.4 349.1 196.9Q348.3 197.4 347.8 198.3Q347.4 199.2 347.4 200.4L347.4 200.4L347.4 213.5ZM383.5 213.5L377.5 213.5L377.5 191.7L383.5 191.7L383.5 213.5ZM380.5 188.8L380.5 188.8Q379.2 188.8 378.2 187.9Q377.2 187.0 377.2 185.8L377.2 185.8Q377.2 184.5 378.2 183.6Q379.2 182.7 380.5 182.7L380.5 182.7Q381.9 182.7 382.8 183.6Q383.8 184.5 383.8 185.8L383.8 185.8Q383.8 187.0 382.8 187.9Q381.9 188.8 380.5 188.8ZM397.5 202.6L393.5 207.2L393.5 199.9L394.4 199.9L401.4 191.7L408.3 191.7L399.0 202.6L397.5 202.6ZM394.1 213.5L388.0 213.5L388.0 184.4L394.1 184.4L394.1 213.5ZM408.8 213.5L401.7 213.5L395.3 204.0L399.3 199.7L408.8 213.5ZM420.0 213.9L420.0 213.9Q416.6 213.9 414.2 212.5Q411.8 211.2 410.5 208.6Q409.2 206.1 409.2 202.7L409.2 202.7Q409.2 199.3 410.5 196.8Q411.8 194.2 414.2 192.8Q416.6 191.4 419.8 191.4L419.8 191.4Q421.9 191.4 423.8 192.1Q425.7 192.7 427.1 194.1Q428.5 195.5 429.2 197.6Q430.0 199.7 430.0 202.5L430.0 202.5L430.0 204.1L411.6 204.1L411.6 200.4L424.3 200.4Q424.3 199.1 423.8 198.0Q423.2 197.0 422.2 196.5Q421.2 195.9 419.9 195.9L419.9 195.9Q418.5 195.9 417.4 196.5Q416.4 197.2 415.8 198.2Q415.2 199.3 415.2 200.6L415.2 200.6L415.2 204.1Q415.2 205.7 415.8 206.9Q416.4 208.1 417.5 208.7Q418.6 209.4 420.1 209.4L420.1 209.4Q421.1 209.4 422.0 209.1Q422.8 208.8 423.4 208.2Q424.0 207.7 424.3 206.9L424.3 206.9L429.9 207.2Q429.5 209.2 428.2 210.7Q426.8 212.2 424.8 213.1Q422.7 213.9 420.0 213.9ZM433.7 184.4L439.7 184.4L439.7 213.5L433.7 213.5L433.7 184.4ZM450.3 213.5L444.2 213.5L444.2 191.7L450.3 191.7L450.3 213.5ZM447.3 188.8L447.3 188.8Q445.9 188.8 445.0 187.9Q444.0 187.0 444.0 185.8L444.0 185.8Q444.0 184.5 445.0 183.6Q445.9 182.7 447.3 182.7L447.3 182.7Q448.6 182.7 449.6 183.6Q450.5 184.5 450.5 185.8L450.5 185.8Q450.5 187.0 449.6 187.9Q448.6 188.8 447.3 188.8ZM468.8 204.2L468.8 204.2L468.8 191.7L474.8 191.7L474.8 213.5L469.0 213.5L469.0 209.5L468.8 209.5Q468.0 211.4 466.3 212.6Q464.6 213.8 462.2 213.8L462.2 213.8Q460.0 213.8 458.3 212.8Q456.7 211.8 455.7 209.9Q454.8 208.1 454.8 205.5L454.8 205.5L454.8 191.7L460.8 191.7L460.8 204.5Q460.8 206.4 461.9 207.5Q462.9 208.6 464.6 208.6L464.6 208.6Q465.7 208.6 466.7 208.1Q467.6 207.6 468.2 206.6Q468.8 205.6 468.8 204.2ZM493.3 204.2L493.3 204.2L493.3 191.7L499.4 191.7L499.4 213.5L493.6 213.5L493.6 209.5L493.3 209.5Q492.6 211.4 490.9 212.6Q489.2 213.8 486.7 213.8L486.7 213.8Q484.5 213.8 482.9 212.8Q481.2 211.8 480.3 209.9Q479.3 208.1 479.3 205.5L479.3 205.5L479.3 191.7L485.4 191.7L485.4 204.5Q485.4 206.4 486.4 207.5Q487.4 208.6 489.2 208.6L489.2 208.6Q490.3 208.6 491.2 208.1Q492.2 207.6 492.7 206.6Q493.3 205.6 493.3 204.2Z "/></svg>